<?xml version="1.0" encoding="UTF-8"?>
<svg width="70px" height="44px" viewBox="0 0 70 44" version="1.1" xmlns="http://www.w3.org/2000/svg" xmlns:xlink="http://www.w3.org/1999/xlink">
    <!-- Generator: Sketch 47.1 (45422) - http://www.bohemiancoding.com/sketch -->
    <title>Group 4 Copy 2</title>
    <desc>Created with Sketch.</desc>
    <defs></defs>
    <g id="Symbols" stroke="none" stroke-width="1" fill="none" fill-rule="evenodd">
        <g id="footer" transform="translate(-235.000000, -84.000000)">
            <g id="Group-21">
                <g id="Group-10">
                    <g id="Group-11">
                        <g id="Group-9" transform="translate(52.000000, 55.000000)">
                            <g id="Group-4-Copy-2" transform="translate(183.000000, 29.000000)">
                                <polygon id="Fill-1" fill="#AAAAAA" points="0.52238806 44 69.4776119 44 69.4776119 38.3058824 0.52238806 38.3058824"></polygon>
                                <path d="M19.3053862,21.0822788 C19.3053862,16.8303336 16.5536269,13.8629122 12.5598124,13.8629122 C8.60961987,13.8629122 5.85827346,16.8746275 5.81382588,21.0822788 C5.85827346,25.3342241 8.56544751,28.3016455 12.5598124,28.3016455 C16.5536269,28.3016455 19.3053862,25.3342241 19.3053862,21.0822788 L19.3053862,21.0822788 Z M25.0746269,0 L25.0746269,32.8636482 L19.3053862,32.8636482 L19.3053862,29.0547781 C17.6189927,31.667848 14.8672335,33.1294118 11.3167939,33.1294118 C4.52677261,33.1294118 0,28.1687637 0,20.949397 C0,13.7743243 4.52677261,8.94669391 11.1837264,8.94669391 C14.8231987,8.94669391 17.5745452,10.4082576 19.3053862,13.0657574 L19.3053862,0 L25.0746269,0 Z" id="Fill-2" fill="#FFFFFF"></path>
                                <path d="M44.4029851,31.4020845 C42.5939647,32.5092968 40.5639817,33.1294118 38.4902166,33.1294118 C34.6512131,33.1294118 31.5625249,30.9148513 31.5625249,26.0429269 L31.5625249,13.3358688 L28.2528741,13.3358688 L28.2089552,9.12821749 L31.5625249,9.12821749 L31.5625249,0 L37.2544676,0 L37.2544676,9.12821749 L44.0059364,9.12821749 L44.0059364,13.3358688 L37.2544676,13.3358688 L37.2544676,25.0243025 C37.2544676,27.283021 38.1812793,28.0358819 39.7256918,28.0358819 C40.6962856,28.0358819 41.7994569,27.6818022 43.0791247,27.0615514 L44.4029851,31.4020845 Z" id="Fill-5" fill="#FFFFFF"></path>
                                <path d="M64.2201963,21.8563459 L64.2201963,20.1631717 C63.8646794,16.331215 61.2415186,13.7466878 57.5072813,13.7466878 C53.5502772,13.7466878 50.7940905,16.7766865 50.7494269,21.0096904 C50.7940905,25.2871185 53.5060272,28.2725564 57.5072813,28.2725564 C61.2415186,28.2725564 63.8646794,25.6883026 64.2201963,21.8563459 L64.2201963,21.8563459 Z M70,9.02378826 L70,32.8620469 L64.2201963,32.8620469 L64.2201963,29.0746511 C62.5308361,31.6590416 59.8188995,33.1294118 56.2622138,33.1294118 C49.4601094,33.1294118 44.9253731,28.138874 44.9253731,20.876008 C44.9253731,13.702127 49.3713336,8.845545 56.0399985,8.80098418 C59.68546,8.75642337 62.486586,10.2267935 64.2201963,12.8556082 L64.2201963,9.02378826 L70,9.02378826 Z" id="Fill-7" fill="#FFFFFF"></path>
                            </g>
                        </g>
                    </g>
                </g>
            </g>
        </g>
    </g>
</svg>